# xmcd CD database file
#
# Track frame offsets:
#	150
#	19120
#	49885
#	71027
#	87244
#	115409
#	137758
#
# Disc length: 2194 seconds
#
# Revision: 0
# Processed by: cddbd v1.4PL0 Copyright (c) Steve Scherf et al.
# Submitted via: Feurio! 1.65 - http://www.feurio.com
#
DISCID=60089007
DTITLE=Jeffree - Jeffree
DYEAR=1900
DGENRE=blues
TTITLE0=Mr. Fix It
TTITLE1=I Can't Help It Baby
TTITLE2=Better Wake Up Girl
TTITLE3=One Last Chance
TTITLE4=All My Loving (Was Made For You)
TTITLE5=Take My Love
TTITLE6=Love's Gonna Last
EXTD=
EXTT0=
EXTT1=
EXTT2=
EXTT3=
EXTT4=
EXTT5=
EXTT6=
PLAYORDER=
